# MagicaVoxel @ Ephtracy

# group
o 

# material
mtllib option_sign_4.mtl
usemtl palette

# normals
vn -1 0 0
vn 1 0 0
vn 0 0 1
vn 0 0 -1
vn 0 -1 0
vn 0 1 0

# texcoords
vt 0.369141 0.5
vt 0.994141 0.5

# verts
v 0 1.3 0
v 0 1.3 -0.1
v 0 2 0
v 0 2 -0.1
v 0.4 1 0
v 0.4 1 -0.1
v 0.4 1.3 0
v 0.4 1.3 -0.1
v 0.4 2 0
v 0.4 2 -0.1
v 0.4 2.1 0
v 0.4 2.1 -0.1
v 0.5 1 0
v 0.5 1 -0.1
v 0.5 1.3 0
v 0.5 1.3 -0.1
v 0.5 2 0
v 0.5 2 -0.1
v 0.5 2.1 0
v 0.5 2.1 -0.1
v 0.9 1.3 0
v 0.9 1.3 -0.1
v 0.9 2 0
v 0.9 2 -0.1
v 0 1.3 0
v 0 2 0
v 0.3 1.6 0
v 0.3 1.9 0
v 0.4 1 0
v 0.4 1.3 0
v 0.4 1.7 0
v 0.4 1.9 0
v 0.4 2 0
v 0.4 2.1 0
v 0.5 1 0
v 0.5 1.3 0
v 0.5 1.4 0
v 0.5 1.6 0
v 0.5 1.7 0
v 0.5 1.9 0
v 0.5 2 0
v 0.5 2.1 0
v 0.6 1.4 0
v 0.6 1.9 0
v 0.9 1.3 0
v 0.9 2 0
v 0 1.3 -0.1
v 0 2 -0.1
v 0.3 1.6 -0.1
v 0.3 1.9 -0.1
v 0.4 1 -0.1
v 0.4 1.3 -0.1
v 0.4 1.7 -0.1
v 0.4 1.9 -0.1
v 0.4 2 -0.1
v 0.4 2.1 -0.1
v 0.5 1 -0.1
v 0.5 1.3 -0.1
v 0.5 1.4 -0.1
v 0.5 1.6 -0.1
v 0.5 1.7 -0.1
v 0.5 1.9 -0.1
v 0.5 2 -0.1
v 0.5 2.1 -0.1
v 0.6 1.4 -0.1
v 0.6 1.9 -0.1
v 0.9 1.3 -0.1
v 0.9 2 -0.1
v 0.4 1 0
v 0.5 1 0
v 0.4 1 -0.1
v 0.5 1 -0.1
v 0 1.3 0
v 0.4 1.3 0
v 0.5 1.3 0
v 0.9 1.3 0
v 0 1.3 -0.1
v 0.4 1.3 -0.1
v 0.5 1.3 -0.1
v 0.9 1.3 -0.1
v 0 2 0
v 0.4 2 0
v 0.5 2 0
v 0.9 2 0
v 0 2 -0.1
v 0.4 2 -0.1
v 0.5 2 -0.1
v 0.9 2 -0.1
v 0.4 2.1 0
v 0.5 2.1 0
v 0.4 2.1 -0.1
v 0.5 2.1 -0.1

# faces
f 3/1/1 2/1/1 1/1/1
f 4/1/1 2/1/1 3/1/1
f 7/1/1 6/1/1 5/1/1
f 8/1/1 6/1/1 7/1/1
f 11/1/1 10/1/1 9/1/1
f 12/1/1 10/1/1 11/1/1
f 13/1/2 14/1/2 15/1/2
f 15/1/2 14/1/2 16/1/2
f 17/1/2 18/1/2 19/1/2
f 19/1/2 18/1/2 20/1/2
f 21/1/2 22/1/2 23/1/2
f 23/1/2 22/1/2 24/1/2
f 27/1/3 26/1/3 25/1/3
f 28/1/3 26/1/3 27/1/3
f 30/1/3 27/1/3 25/1/3
f 31/2/3 28/2/3 27/2/3
f 32/1/3 26/1/3 28/1/3
f 32/2/3 28/2/3 31/2/3
f 33/1/3 26/1/3 32/1/3
f 35/1/3 30/1/3 29/1/3
f 36/1/3 27/1/3 30/1/3
f 36/1/3 30/1/3 35/1/3
f 37/1/3 27/1/3 36/1/3
f 38/2/3 31/2/3 27/2/3
f 38/1/3 27/1/3 37/1/3
f 39/1/3 34/1/3 33/1/3
f 39/2/3 31/2/3 38/2/3
f 39/1/3 32/1/3 31/1/3
f 39/1/3 33/1/3 32/1/3
f 40/1/3 34/1/3 39/1/3
f 41/1/3 34/1/3 40/1/3
f 42/1/3 34/1/3 41/1/3
f 43/1/3 37/1/3 36/1/3
f 43/2/3 38/2/3 37/2/3
f 43/2/3 40/2/3 39/2/3
f 43/2/3 39/2/3 38/2/3
f 44/1/3 41/1/3 40/1/3
f 44/2/3 40/2/3 43/2/3
f 45/1/3 43/1/3 36/1/3
f 45/1/3 44/1/3 43/1/3
f 46/1/3 41/1/3 44/1/3
f 46/1/3 44/1/3 45/1/3
f 47/1/4 48/1/4 49/1/4
f 49/1/4 48/1/4 50/1/4
f 47/1/4 49/1/4 52/1/4
f 49/2/4 50/2/4 53/2/4
f 50/1/4 48/1/4 54/1/4
f 53/2/4 50/2/4 54/2/4
f 54/1/4 48/1/4 55/1/4
f 51/1/4 52/1/4 57/1/4
f 52/1/4 49/1/4 58/1/4
f 57/1/4 52/1/4 58/1/4
f 58/1/4 49/1/4 59/1/4
f 49/2/4 53/2/4 60/2/4
f 59/1/4 49/1/4 60/1/4
f 55/1/4 56/1/4 61/1/4
f 60/2/4 53/2/4 61/2/4
f 53/1/4 54/1/4 61/1/4
f 54/1/4 55/1/4 61/1/4
f 61/1/4 56/1/4 62/1/4
f 62/1/4 56/1/4 63/1/4
f 63/1/4 56/1/4 64/1/4
f 58/1/4 59/1/4 65/1/4
f 59/2/4 60/2/4 65/2/4
f 61/2/4 62/2/4 65/2/4
f 60/2/4 61/2/4 65/2/4
f 62/1/4 63/1/4 66/1/4
f 65/2/4 62/2/4 66/2/4
f 58/1/4 65/1/4 67/1/4
f 65/1/4 66/1/4 67/1/4
f 66/1/4 63/1/4 68/1/4
f 67/1/4 66/1/4 68/1/4
f 71/1/5 70/1/5 69/1/5
f 72/1/5 70/1/5 71/1/5
f 77/1/5 74/1/5 73/1/5
f 78/1/5 74/1/5 77/1/5
f 79/1/5 76/1/5 75/1/5
f 80/1/5 76/1/5 79/1/5
f 81/1/6 82/1/6 85/1/6
f 85/1/6 82/1/6 86/1/6
f 83/1/6 84/1/6 87/1/6
f 87/1/6 84/1/6 88/1/6
f 89/1/6 90/1/6 91/1/6
f 91/1/6 90/1/6 92/1/6
